<?xml version="1.0" encoding="UTF-8" standalone="no"?>
<svg
   viewBox="0 0 100 100"
   width="100%"
   height="100%"
   version="1.1"
   id="svg7"
   sodipodi:docname="gemini-svg-white (4).svg"
   inkscape:export-filename="gemini-svg (4).png"
   inkscape:export-xdpi="491.51999"
   inkscape:export-ydpi="491.51999"
   inkscape:version="1.3 (0e150ed6c4, 2023-07-21)"
   xmlns:inkscape="http://www.inkscape.org/namespaces/inkscape"
   xmlns:sodipodi="http://sodipodi.sourceforge.net/DTD/sodipodi-0.dtd"
   xmlns="http://www.w3.org/2000/svg"
   xmlns:svg="http://www.w3.org/2000/svg">
  <defs
     id="defs7" />
  <sodipodi:namedview
     id="namedview7"
     pagecolor="#ffffff"
     bordercolor="#000000"
     borderopacity="0.25"
     inkscape:showpageshadow="2"
     inkscape:pageopacity="0.0"
     inkscape:pagecheckerboard="0"
     inkscape:deskcolor="#d1d1d1"
     inkscape:zoom="8.13"
     inkscape:cx="41.266913"
     inkscape:cy="45.448954"
     inkscape:window-width="1920"
     inkscape:window-height="1009"
     inkscape:window-x="-8"
     inkscape:window-y="-8"
     inkscape:window-maximized="1"
     inkscape:current-layer="svg7" />
  <ellipse
     cx="50.110081"
     cy="49.964947"
     fill="#ffffff"
     id="circle5-2"
     inkscape:label="circle-bg"
     rx="49.978474"
     ry="49.855473"
     style="stroke-width:19.9667" />
  <path
     d="m 32.246003,75.496924 c -12,0 -14,-28 0,-35 12,7 10,35 0,35 z"
     fill="#00c853"
     id="path1" />
  <circle
     cx="27.746002"
     cy="57.496925"
     r="1.5"
     fill="#ffffff"
     id="circle1" />
  <circle
     cx="34.746002"
     cy="57.496925"
     r="1.5"
     fill="#ffffff"
     id="circle2" />
  <path
     d="m 68.246003,75.496924 c 12,0 14,-28 0,-35 -12,7 -10,35 0,35 z"
     fill="#00c853"
     id="path2" />
  <circle
     cx="72.746002"
     cy="57.496925"
     r="1.5"
     fill="#ffffff"
     id="circle3" />
  <circle
     cx="65.746002"
     cy="57.496925"
     r="1.5"
     fill="#ffffff"
     id="circle4" />
  <path
     d="m 50.246003,75.496924 c -18,0 -16,-41 0,-51 16,10 18,51 0,51 z"
     fill="#00e676"
     id="path4" />
  <circle
     cx="45.246002"
     cy="48.496925"
     r="2.5"
     fill="#ffffff"
     id="circle5" />
  <circle
     cx="55.246002"
     cy="48.496925"
     r="2.5"
     fill="#ffffff"
     id="circle6" />
  <line
     x1="11.733459"
     y1="75.496933"
     x2="88.758545"
     y2="75.496933"
     stroke="#d4af37"
     stroke-width="5.88738"
     stroke-linecap="round"
     id="line6" />
  <path
     d="m 14.246003,75.496924 h 72 l -6,10 h -60 z"
     fill="#d4af37"
     id="path6" />
  <circle
     cx="50.246002"
     cy="7.4969244"
     r="5"
     fill="none"
     stroke="#d4af37"
     stroke-width="4"
     id="circle7" />
  <path
     d="m 16.246003,75.496924 v -26 a 34,34 0 0 1 68,0 v 26"
     fill="none"
     stroke="#d4af37"
     stroke-width="6"
     id="path7" />
</svg>
